<?xml version="1.0" encoding="UTF-8" standalone="no"?>
<!-- Created with Inkscape (http://www.inkscape.org/) -->

<svg
   width="59.499184mm"
   height="8.5724726mm"
   viewBox="0 0 59.499184 8.5724726"
   version="1.1"
   id="svg5"
   inkscape:version="1.2.2 (b0a8486, 2022-12-01)"
   sodipodi:docname="logo-ink.svg"
   xmlns:inkscape="http://www.inkscape.org/namespaces/inkscape"
   xmlns:sodipodi="http://sodipodi.sourceforge.net/DTD/sodipodi-0.dtd"
   xmlns="http://www.w3.org/2000/svg"
   xmlns:svg="http://www.w3.org/2000/svg">
  <sodipodi:namedview
     id="namedview7"
     pagecolor="#ffffff"
     bordercolor="#666666"
     borderopacity="1.0"
     inkscape:showpageshadow="2"
     inkscape:pageopacity="0.0"
     inkscape:pagecheckerboard="0"
     inkscape:deskcolor="#d1d1d1"
     inkscape:document-units="mm"
     showgrid="false"
     inkscape:lockguides="true"
     inkscape:zoom="0.78985682"
     inkscape:cx="339.93503"
     inkscape:cy="75.963134"
     inkscape:window-width="1440"
     inkscape:window-height="900"
     inkscape:window-x="0"
     inkscape:window-y="180"
     inkscape:window-maximized="0"
     inkscape:current-layer="layer1" />
  <defs
     id="defs2" />
  <g
     inkscape:label="Layer 1"
     inkscape:groupmode="layer"
     id="layer1"
     transform="translate(-33.497631,-139.08218)">
    <g
       aria-label="Sahara Sands"
       id="text142"
       style="font-size:10.5833px;line-height:1.25;font-family:'Cloister Black';-inkscape-font-specification:'Cloister Black, ';stroke-width:0.264583">
      <path
         d="m 36.513871,139.08218 2.095494,0.78317 0.243416,-0.45509 0.222249,0.10584 -1.02658,1.88382 h 0.211666 q 0.243416,0.0212 0.719664,0.0952 0.783164,0.14817 1.492246,0.67734 0.719664,0.52916 0.740831,1.38641 0.01058,0.59266 -0.402166,1.15358 -0.370415,0.49741 -0.836081,0.88899 l -1.513411,0.91017 h -0.105833 l -1.31233,-0.53975 -1.471078,0.53975 q -0.0635,0.0212 -0.211666,0.0423 l -0.232833,0.0317 q -0.05292,0 -0.08467,0.0106 h -0.08467 q -0.0635,0 -0.07408,0.0106 h -0.07408 q -0.370415,0 -0.804331,-0.17992 -0.370415,-0.15875 -0.486831,-0.61383 -0.01058,-0.0318 -0.02117,-0.0635 v -0.17992 q 0,-0.70908 0.941914,-1.05833 0.211666,-0.0741 0.433915,-0.0952 l 0.264583,-0.0212 q 0.03175,0.0212 0.169332,0.0212 h 0.09525 q 0.0635,0.0212 0.232833,0.0212 0.04233,0.0106 0.126999,0.0106 l 0.253999,0.0317 0.169333,-0.32808 q -0.01058,0.0318 -0.0635,0.0318 h -0.116416 q -0.01058,0.0106 -0.03175,0.0106 h -0.243416 q -0.05292,0 -0.08467,0 -0.02117,-0.0106 -0.05292,-0.0212 -0.03175,0 -0.04233,0 -1.471078,-0.15875 -1.788577,-1.29116 v -0.0212 q -0.01058,0 -0.01058,-0.0106 v -0.0529 q -0.01058,0 -0.01058,-0.0106 v -0.0317 q 0,-0.42333 0.243416,-0.67733 0.285749,-0.30692 0.624415,-0.43392 0.0635,-0.41275 0.275165,-0.8255 0.211666,-0.42333 0.476249,-0.66674 z m -2.116659,6.3394 q -0.349249,0.11641 -0.444499,0.381 -0.02117,0.0212 -0.02117,0.0635 v 0.0635 q 0,0.0106 0.01058,0.0635 0,0.0106 0,0.0318 0.01058,0.0106 0.02117,0.0212 0,0.0106 0,0.0212 0.02117,0.0317 0.0635,0.0952 0.05292,0.0529 0.09525,0.0847 0.04233,0.0317 0.222249,0.10583 0.07408,0.0106 0.232833,0.0423 0.0635,0 0.169332,0.0212 0.05292,0 0.08467,0.0106 h 0.201083 q 0.03175,-0.0106 0.116416,-0.0106 0.582081,-0.0847 0.93133,-0.23283 0.179916,-0.0741 0.613832,-0.30692 l -1.492246,-0.41275 q -0.03175,0.0106 -0.08467,0.0106 -0.02117,0 -0.05292,-0.0106 -0.03175,0 -0.04233,0 -0.0635,0 -0.09525,-0.0106 h -0.105833 q -0.01058,0 -0.0635,-0.0106 h -0.169333 z m 3.757071,-2.86808 q -0.08467,0.0529 -0.275166,0.0529 h -0.09525 q -0.158749,0.0317 -0.275165,0.0317 -0.04233,0.0106 -0.09525,0.0106 l -0.306916,0.47625 1.555745,-0.0635 q 0.04233,0.0318 0.137583,0.0318 0,0 0.148166,0.0317 0.328083,0.0741 0.624415,0.35983 0.306916,0.27517 0.306916,0.62442 v 0.0212 q -0.01058,0.0106 -0.01058,0.0318 v 0.0847 q -0.01058,0.0106 -0.01058,0.0318 v 0.0529 q 0,0.0106 -0.01058,0.0212 -0.01058,0.0106 -0.02117,0.0318 -0.01058,0.0212 -0.01058,0.0423 -0.04233,0.0741 -0.169333,0.23283 -0.01058,0.0212 -0.04233,0.0635 -0.02117,0.0317 -0.03175,0.0423 -0.01058,0.0106 -0.105833,0.10584 l -0.984247,0.508 0.836081,0.34924 q 0.412749,-0.24341 0.730248,-0.68791 0.317499,-0.4445 0.317499,-0.91016 v -0.0847 q -0.01058,-0.0635 -0.03175,-0.17992 0,-0.0317 -0.02117,-0.0847 -0.03175,-0.10584 -0.0635,-0.16934 -0.01058,-0.0317 -0.04233,-0.0847 -0.03175,-0.0635 -0.04233,-0.0953 -0.550332,-0.85725 -1.904994,-0.85725 z m 0.433915,1.51342 -2.074327,0.127 -0.190499,0.40216 1.703911,0.60325 q 0.04233,0.0317 0.127,0.0106 0.05292,-0.0106 0.127,-0.0529 0.07408,-0.0423 0.158749,-0.11642 0.02117,-0.0212 0.0635,-0.0635 0.05292,-0.0423 0.08467,-0.0741 0.169333,-0.20109 0.211666,-0.32809 0,-0.0212 0.02117,-0.0847 0,-0.0106 0.01058,-0.0529 v -0.13758 q -0.01058,-0.0106 -0.01058,-0.0423 v -0.0212 q -0.01058,0 -0.02117,-0.0106 0,-0.0212 -0.01058,-0.0318 0,-0.0106 -0.08467,-0.0529 -0.01058,-0.0106 -0.04233,-0.0212 -0.03175,-0.0106 -0.04233,-0.0106 0,-0.0106 -0.01058,-0.0212 h -0.02117 z m -3.884071,-2.16958 q -0.02117,0.0317 -0.08467,0.0741 0,0.0106 -0.0635,0.0741 0,0 -0.02117,0.0317 -0.02117,0.0212 -0.03175,0.0318 -0.05292,0.15875 -0.05292,0.16933 0,0 -0.01058,0.0212 v 0.0847 q 0,0.0106 0.01058,0.0212 0.05292,0.23283 0.211666,0.381 0.116416,0.10583 0.412749,0.26458 0.04233,0.0212 0.116416,0.0529 0.02117,0 0.03175,0 0.02117,0.0106 0.03175,0.0212 0.01058,0 0.05292,0 h 0.07408 q 0.01058,0.0106 0.07408,0.0212 0.07408,0 0.158749,0 0.380999,0.0423 0.465665,0.0423 h 0.275166 q 0.04233,0 0.148166,-0.0212 h 0.02117 q 0.05292,0 0.08467,-0.0106 h 0.07408 q 0.04233,0 0.07408,-0.0106 h 0.0635 l 0.243416,-0.51858 q -0.04233,0.0423 -0.09525,0.0423 h -0.04233 q -0.01058,0.0106 -0.04233,0.0106 -0.15875,0.0318 -0.169333,0.0318 -0.105833,0.0212 -0.169333,0.0212 -0.105833,0.0212 -0.148166,0.0212 h -0.211666 q -0.05292,0 -0.08467,-0.0106 -1.047747,-0.0423 -1.396996,-0.82549 z m 1.502829,-1.76741 q -0.349249,0.0741 -0.571498,0.29633 -0.211666,0.21167 -0.211666,0.508 0,0.0635 0,0.0952 0.01058,0.0318 0.03175,0.0953 0,0.0106 0.02117,0.0741 0.02117,0.0106 0.03175,0.0635 0.201083,0.35983 0.550332,0.35983 l 0.0635,-0.0529 1.576912,-0.0847 0.370416,-0.635 q 0.02117,0 -0.105833,-0.0423 0,-0.0106 -0.02117,-0.0212 -0.02117,-0.0212 -0.04233,-0.0212 -0.01058,0 -0.04233,-0.0317 -0.116417,-0.0635 -0.243416,-0.13759 l -0.254,-0.127 q -0.190499,-0.0952 -0.518581,-0.21166 -0.169333,-0.0635 -0.296333,-0.0847 -0.126999,-0.0212 -0.296332,-0.0212 z"
         style="fill:#ffffff"
         id="path340" />
      <path
         d="m 43.795171,141.13534 1.418162,0.55033 v 0.0106 l 0.02117,-0.0212 q 0.02117,-0.0318 0.105833,-0.10583 0.09525,-0.0741 0.158749,-0.0847 0.01058,0 0.03175,-0.0106 h 0.03175 q 0.01058,0 0.03175,-0.0106 h 0.03175 l 0.04233,-0.0212 q -0.04233,0.0741 -0.116416,0.20108 -0.04233,0.0635 -0.105833,0.20108 -0.05292,0.127 -0.169333,0.40217 l -0.02117,2.98449 q 0.01058,0.0423 0.01058,0.0529 0.01058,0.0106 0.02117,0.0318 v 0.0317 q 0,0.0106 0.01058,0.0318 v 0.0212 q 0.02117,0.0318 0.07408,0.10583 0.01058,0.0106 0.105833,0.0847 0,0.0212 0.02117,0.0212 h 0.01058 q 0,0.0106 0.01058,0.0106 l 0.190499,-0.13758 0.15875,0.13758 -0.920747,0.80433 h -0.0635 q -0.179916,0 -0.306916,-0.14816 -0.158749,-0.21167 -0.201082,-0.37042 -0.03175,-0.0741 -0.07408,-0.24342 -0.03175,-0.16933 -0.03175,-0.20108 v -0.0741 q -0.01058,0 -0.01058,-0.0212 v -0.0529 q -0.01058,-0.0106 -0.01058,-0.0318 v -0.0635 l -1.396996,1.20649 q -0.380998,-0.21166 -0.624414,-0.58208 -0.232833,-0.381 -0.232833,-0.79375 v -0.0529 q 0,-0.0106 0.01058,-0.0318 v -0.10584 q 0,-0.0106 0.01058,-0.0317 v -0.0212 q 0,-0.0106 0.08467,-0.32809 0.232833,-0.85724 0.899581,-1.39699 l -0.518582,-1.48166 q 0.01058,0.0317 0.03175,0.0317 h 0.0635 q 0,0.0106 0.02117,0.0106 h 0.148166 q 0.03175,0 0.05292,0 0.02117,-0.0106 0.04233,-0.0212 0.01058,0 0.02117,0 0.222249,-0.0318 0.497415,-0.15875 0.243416,-0.11641 0.433915,-0.30691 z m -0.571498,2.14841 q -0.190499,0.254 -0.264583,0.46567 -0.0635,0.21166 -0.0635,0.46566 v 0.14817 q 0,0.0847 0.02117,0.14816 0.08467,0.56092 0.497415,1.13242 l 0.116417,-0.0635 0.740831,-0.65617 V 143.887 Z m -0.412749,-1.44991 0.412749,1.16416 1.02658,0.59267 V 142.363 l -1.312329,-0.52916 z"
         style="fill:#ffffff"
         id="path342" />
      <path
         d="m 48.21898,139.30443 h 0.243416 q -0.306916,0.27517 -0.412749,0.51858 -0.105833,0.24342 -0.158749,0.635 v 1.86266 l 1.439329,-1.20649 q 0.317499,0.25399 0.486831,0.49741 0.179916,0.27517 0.264583,0.61383 v 3.25966 q -0.201083,0.9525 -0.99483,1.46049 -0.793748,0.51859 -1.703912,0.70908 h -0.03175 q -0.01058,-0.0106 -0.03175,-0.0212 -0.01058,0 -0.0635,-0.0212 h -0.01058 q -0.01058,-0.0106 -0.02117,-0.0106 h -0.01058 q -0.01058,-0.0106 -0.02117,-0.0106 l 0.0635,-0.15874 q 1.471078,-0.48684 1.820327,-1.55575 V 142.363 l -0.402165,-0.37041 -0.804331,0.65616 v 2.667 l 0.328083,0.39158 -0.836081,0.71966 -0.825498,-0.71966 0.328083,-0.39158 v -3.41841 l -0.550332,-0.0212 v -0.56091 h 0.592665 v -0.85725 q -0.127,-0.61383 -0.507998,-0.92075 l 0.07408,-0.0212 q 0.03175,0.0318 0.08467,0.0318 h 0.04233 q 0.01058,0.0106 0.04233,0.0106 0.09525,0.0318 0.264583,0.127 0.179916,0.0952 0.253999,0.20108 0.01058,0 0.02117,0.0212 0.01058,0.0212 0.01058,0.0317 l 0.04233,0.0423 q 0.433916,-0.55033 0.984247,-0.65616 z"
         style="fill:#ffffff"
         id="path344" />
      <path
         d="m 52.695701,141.13534 1.418162,0.55033 v 0.0106 l 0.02117,-0.0212 q 0.02117,-0.0318 0.105833,-0.10583 0.09525,-0.0741 0.158749,-0.0847 0.01058,0 0.03175,-0.0106 h 0.03175 q 0.01058,0 0.03175,-0.0106 h 0.03175 l 0.04233,-0.0212 q -0.04233,0.0741 -0.116416,0.20108 -0.04233,0.0635 -0.105833,0.20108 -0.05292,0.127 -0.169333,0.40217 l -0.02117,2.98449 q 0.01058,0.0423 0.01058,0.0529 0.01058,0.0106 0.02117,0.0318 v 0.0317 q 0,0.0106 0.01058,0.0318 v 0.0212 q 0.02117,0.0318 0.07408,0.10583 0.01058,0.0106 0.105833,0.0847 0,0.0212 0.02117,0.0212 h 0.01058 q 0,0.0106 0.01058,0.0106 l 0.190499,-0.13758 0.15875,0.13758 -0.920747,0.80433 h -0.0635 q -0.179916,0 -0.306916,-0.14816 -0.158749,-0.21167 -0.201083,-0.37042 -0.03175,-0.0741 -0.07408,-0.24342 -0.03175,-0.16933 -0.03175,-0.20108 v -0.0741 q -0.01058,0 -0.01058,-0.0212 v -0.0529 q -0.01058,-0.0106 -0.01058,-0.0318 v -0.0635 l -1.396996,1.20649 q -0.380998,-0.21166 -0.624414,-0.58208 -0.232833,-0.381 -0.232833,-0.79375 v -0.0529 q 0,-0.0106 0.01058,-0.0318 v -0.10584 q 0,-0.0106 0.01058,-0.0317 v -0.0212 q 0,-0.0106 0.08467,-0.32809 0.232833,-0.85724 0.899581,-1.39699 l -0.518582,-1.48166 q 0.01058,0.0317 0.03175,0.0317 h 0.0635 q 0,0.0106 0.02117,0.0106 h 0.148166 q 0.03175,0 0.05292,0 0.02117,-0.0106 0.04233,-0.0212 0.01058,0 0.02117,0 0.222249,-0.0318 0.497415,-0.15875 0.243416,-0.11641 0.433915,-0.30691 z m -0.571498,2.14841 q -0.1905,0.254 -0.264583,0.46567 -0.0635,0.21166 -0.0635,0.46566 v 0.14817 q 0,0.0847 0.02117,0.14816 0.08467,0.56092 0.497415,1.13242 l 0.116416,-0.0635 0.740831,-0.65617 V 143.887 Z m -0.412749,-1.44991 0.412749,1.16416 1.02658,0.59267 V 142.363 l -1.312329,-0.52916 z"
         style="fill:#ffffff"
         id="path346" />
      <path
         d="m 56.050597,141.11418 h 0.02117 q 0.03175,0.0317 0.0635,0.0317 0.01058,0 0.02117,0 0.01058,0.0106 0.02117,0.0212 0.01058,0.0106 0.03175,0.0106 0.0635,0.0635 0.09525,0.0847 0.03175,0.0106 0.04233,0.0318 0.02117,0.0212 0.03175,0.0317 0.01058,0.0106 0.03175,0.0317 0.02117,0.0106 0.02117,0.0212 0.01058,0.0106 0.02117,0.0317 0.02117,0.0212 0.02117,0.0318 0,-0.0318 0.03175,0.0635 0.03175,0.0212 0.0635,0.0847 0.02117,0.0106 0.03175,0.0635 0,0 0.02117,0.0635 0.01058,0 0.02117,0.0212 0.01058,0.0212 0.01058,0.0423 0,0.0212 0.01058,0.0529 0.02117,0.0317 0.02117,0.0423 0.01058,0 0.02117,0.0529 0.02117,0.0529 0.02117,0.0635 0.01058,0.0106 0.02117,0.0317 0,0.0106 0,0.0318 l 1.026581,-0.92075 0.677331,0.79375 0.02117,0.0847 -0.698497,0.63499 -0.613832,-0.65616 -0.412749,0.37041 v 2.75166 q 0.211666,0.27517 0.518582,0.41275 l 0.380999,-0.32808 0.190499,0.17992 -1.227662,1.04774 q -0.539749,-0.58208 -1.195913,-0.85725 0.190499,-0.14816 0.243416,-0.34924 0.126999,-0.17992 0.126999,-0.43392 v -2.32833 q -0.01058,-0.0106 -0.01058,-0.0423 v -0.0423 q -0.01058,-0.0106 -0.02117,-0.0423 0,-0.0423 -0.09525,-0.21167 -0.0635,-0.0952 -0.15875,-0.14817 l -0.243416,0.127 -0.08467,-0.14816 z"
         style="fill:#ffffff"
         id="path348" />
      <path
         d="m 60.675485,141.13534 1.418162,0.55033 v 0.0106 l 0.02117,-0.0212 q 0.02117,-0.0318 0.105833,-0.10583 0.09525,-0.0741 0.158749,-0.0847 0.01058,0 0.03175,-0.0106 h 0.03175 q 0.01058,0 0.03175,-0.0106 h 0.03175 l 0.04233,-0.0212 q -0.04233,0.0741 -0.116416,0.20108 -0.04233,0.0635 -0.105833,0.20108 -0.05292,0.127 -0.169333,0.40217 l -0.02117,2.98449 q 0.01058,0.0423 0.01058,0.0529 0.01058,0.0106 0.02117,0.0318 v 0.0317 q 0,0.0106 0.01058,0.0318 v 0.0212 q 0.02117,0.0318 0.07408,0.10583 0.01058,0.0106 0.105833,0.0847 0,0.0212 0.02117,0.0212 h 0.01058 q 0,0.0106 0.01058,0.0106 l 0.190499,-0.13758 0.15875,0.13758 -0.920747,0.80433 h -0.0635 q -0.179916,0 -0.306916,-0.14816 -0.158749,-0.21167 -0.201083,-0.37042 -0.03175,-0.0741 -0.07408,-0.24342 -0.03175,-0.16933 -0.03175,-0.20108 v -0.0741 q -0.01058,0 -0.01058,-0.0212 v -0.0529 q -0.01058,-0.0106 -0.01058,-0.0318 v -0.0635 l -1.396996,1.20649 q -0.380998,-0.21166 -0.624414,-0.58208 -0.232833,-0.381 -0.232833,-0.79375 v -0.0529 q 0,-0.0106 0.01058,-0.0318 v -0.10584 q 0,-0.0106 0.01058,-0.0317 v -0.0212 q 0,-0.0106 0.08467,-0.32809 0.232833,-0.85724 0.899581,-1.39699 l -0.518582,-1.48166 q 0.01058,0.0317 0.03175,0.0317 h 0.0635 q 0,0.0106 0.02117,0.0106 h 0.148166 q 0.03175,0 0.05292,0 0.02117,-0.0106 0.04233,-0.0212 0.01058,0 0.02117,0 0.222249,-0.0318 0.497415,-0.15875 0.243416,-0.11641 0.433915,-0.30691 z m -0.571498,2.14841 q -0.1905,0.254 -0.264583,0.46567 -0.0635,0.21166 -0.0635,0.46566 v 0.14817 q 0,0.0847 0.02117,0.14816 0.08467,0.56092 0.497415,1.13242 l 0.116416,-0.0635 0.740831,-0.65617 V 143.887 Z m -0.412749,-1.44991 0.412749,1.16416 1.02658,0.59267 V 142.363 l -1.312329,-0.52916 z"
         style="fill:#ffffff"
         id="path350" />
      <path
         d="m 70.136934,139.08218 2.095493,0.78317 0.243416,-0.45509 0.222249,0.10584 -1.02658,1.88382 h 0.211666 q 0.243416,0.0212 0.719664,0.0952 0.783165,0.14817 1.492246,0.67734 0.719664,0.52916 0.740831,1.38641 0.01058,0.59266 -0.402166,1.15358 -0.370415,0.49741 -0.83608,0.88899 l -1.513412,0.91017 h -0.105833 l -1.312329,-0.53975 -1.471079,0.53975 q -0.0635,0.0212 -0.211666,0.0423 l -0.232833,0.0317 q -0.05292,0 -0.08467,0.0106 h -0.08467 q -0.0635,0 -0.07408,0.0106 h -0.07408 q -0.370415,0 -0.80433,-0.17992 -0.370416,-0.15875 -0.486832,-0.61383 -0.01058,-0.0318 -0.02117,-0.0635 v -0.17992 q 0,-0.70908 0.941914,-1.05833 0.211666,-0.0741 0.433915,-0.0952 l 0.264583,-0.0212 q 0.03175,0.0212 0.169332,0.0212 h 0.09525 q 0.0635,0.0212 0.232833,0.0212 0.04233,0.0106 0.126999,0.0106 l 0.254,0.0317 0.169332,-0.32808 q -0.01058,0.0318 -0.0635,0.0318 h -0.116417 q -0.01058,0.0106 -0.03175,0.0106 h -0.243416 q -0.05292,0 -0.08467,0 -0.02117,-0.0106 -0.05292,-0.0212 -0.03175,0 -0.04233,0 -1.471078,-0.15875 -1.788577,-1.29116 v -0.0212 q -0.01058,0 -0.01058,-0.0106 v -0.0529 q -0.01058,0 -0.01058,-0.0106 v -0.0317 q 0,-0.42333 0.243416,-0.67733 0.285749,-0.30692 0.624415,-0.43392 0.0635,-0.41275 0.275165,-0.8255 0.211666,-0.42333 0.476249,-0.66674 z m -2.11666,6.3394 q -0.349249,0.11641 -0.444499,0.381 -0.02117,0.0212 -0.02117,0.0635 v 0.0635 q 0,0.0106 0.01058,0.0635 0,0.0106 0,0.0318 0.01058,0.0106 0.02117,0.0212 0,0.0106 0,0.0212 0.02117,0.0317 0.0635,0.0952 0.05292,0.0529 0.09525,0.0847 0.04233,0.0317 0.222249,0.10583 0.07408,0.0106 0.232833,0.0423 0.0635,0 0.169333,0.0212 0.05292,0 0.08467,0.0106 h 0.201083 q 0.03175,-0.0106 0.116416,-0.0106 0.582081,-0.0847 0.93133,-0.23283 0.179916,-0.0741 0.613832,-0.30692 l -1.492246,-0.41275 q -0.03175,0.0106 -0.08467,0.0106 -0.02117,0 -0.05292,-0.0106 -0.03175,0 -0.04233,0 -0.0635,0 -0.09525,-0.0106 h -0.105833 q -0.01058,0 -0.0635,-0.0106 h -0.169333 z m 3.757071,-2.86808 q -0.08467,0.0529 -0.275166,0.0529 h -0.09525 q -0.15875,0.0317 -0.275166,0.0317 -0.04233,0.0106 -0.09525,0.0106 l -0.306916,0.47625 1.555745,-0.0635 q 0.04233,0.0318 0.137583,0.0318 0,0 0.148167,0.0317 0.328082,0.0741 0.624414,0.35983 0.306916,0.27517 0.306916,0.62442 v 0.0212 q -0.01058,0.0106 -0.01058,0.0318 v 0.0847 q -0.01058,0.0106 -0.01058,0.0318 v 0.0529 q 0,0.0106 -0.01058,0.0212 -0.01058,0.0106 -0.02117,0.0318 -0.01058,0.0212 -0.01058,0.0423 -0.04233,0.0741 -0.169333,0.23283 -0.01058,0.0212 -0.04233,0.0635 -0.02117,0.0317 -0.03175,0.0423 -0.01058,0.0106 -0.105833,0.10584 l -0.984247,0.508 0.836081,0.34924 q 0.412749,-0.24341 0.730248,-0.68791 0.317499,-0.4445 0.317499,-0.91016 v -0.0847 q -0.01058,-0.0635 -0.03175,-0.17992 0,-0.0317 -0.02117,-0.0847 -0.03175,-0.10584 -0.0635,-0.16934 -0.01058,-0.0317 -0.04233,-0.0847 -0.03175,-0.0635 -0.04233,-0.0953 -0.550332,-0.85725 -1.904994,-0.85725 z m 0.433915,1.51342 -2.074326,0.127 -0.1905,0.40216 1.703911,0.60325 q 0.04233,0.0317 0.127,0.0106 0.05292,-0.0106 0.127,-0.0529 0.07408,-0.0423 0.158749,-0.11642 0.02117,-0.0212 0.0635,-0.0635 0.05292,-0.0423 0.08467,-0.0741 0.169333,-0.20109 0.211666,-0.32809 0,-0.0212 0.02117,-0.0847 0,-0.0106 0.01058,-0.0529 v -0.13758 q -0.01058,-0.0106 -0.01058,-0.0423 v -0.0212 q -0.01058,0 -0.02117,-0.0106 0,-0.0212 -0.01058,-0.0318 0,-0.0106 -0.08467,-0.0529 -0.01058,-0.0106 -0.04233,-0.0212 -0.03175,-0.0106 -0.04233,-0.0106 0,-0.0106 -0.01058,-0.0212 h -0.02117 z m -3.884071,-2.16958 q -0.02117,0.0317 -0.08467,0.0741 0,0.0106 -0.0635,0.0741 0,0 -0.02117,0.0317 -0.02117,0.0212 -0.03175,0.0318 -0.05292,0.15875 -0.05292,0.16933 0,0 -0.01058,0.0212 v 0.0847 q 0,0.0106 0.01058,0.0212 0.05292,0.23283 0.211666,0.381 0.116416,0.10583 0.412749,0.26458 0.04233,0.0212 0.116416,0.0529 0.02117,0 0.03175,0 0.02117,0.0106 0.03175,0.0212 0.01058,0 0.05292,0 h 0.07408 q 0.01058,0.0106 0.07408,0.0212 0.07408,0 0.158749,0 0.380999,0.0423 0.465665,0.0423 h 0.275166 q 0.04233,0 0.148166,-0.0212 h 0.02117 q 0.05292,0 0.08467,-0.0106 h 0.07408 q 0.04233,0 0.07408,-0.0106 h 0.0635 l 0.243416,-0.51858 q -0.04233,0.0423 -0.09525,0.0423 h -0.04233 q -0.01058,0.0106 -0.04233,0.0106 -0.158749,0.0318 -0.169333,0.0318 -0.105833,0.0212 -0.169332,0.0212 -0.105833,0.0212 -0.148167,0.0212 h -0.211666 q -0.05292,0 -0.08467,-0.0106 -1.047747,-0.0423 -1.396996,-0.82549 z m 1.502829,-1.76741 q -0.349249,0.0741 -0.571498,0.29633 -0.211666,0.21167 -0.211666,0.508 0,0.0635 0,0.0952 0.01058,0.0318 0.03175,0.0953 0,0.0106 0.02117,0.0741 0.02117,0.0106 0.03175,0.0635 0.201083,0.35983 0.550332,0.35983 l 0.0635,-0.0529 1.576911,-0.0847 0.370416,-0.635 q 0.02117,0 -0.105833,-0.0423 0,-0.0106 -0.02117,-0.0212 -0.02117,-0.0212 -0.04233,-0.0212 -0.01058,0 -0.04233,-0.0317 -0.116417,-0.0635 -0.243416,-0.13759 l -0.253999,-0.127 q -0.1905,-0.0952 -0.518582,-0.21166 -0.169333,-0.0635 -0.296332,-0.0847 -0.127,-0.0212 -0.296333,-0.0212 z"
         style="fill:#ffffff"
         id="path352" />
      <path
         d="m 77.418233,141.13534 1.418162,0.55033 v 0.0106 l 0.02117,-0.0212 q 0.02117,-0.0318 0.105833,-0.10583 0.09525,-0.0741 0.158749,-0.0847 0.01058,0 0.03175,-0.0106 h 0.03175 q 0.01058,0 0.03175,-0.0106 h 0.03175 l 0.04233,-0.0212 q -0.04233,0.0741 -0.116416,0.20108 -0.04233,0.0635 -0.105833,0.20108 -0.05292,0.127 -0.169333,0.40217 l -0.02117,2.98449 q 0.01058,0.0423 0.01058,0.0529 0.01058,0.0106 0.02117,0.0318 v 0.0317 q 0,0.0106 0.01058,0.0318 v 0.0212 q 0.02117,0.0318 0.07408,0.10583 0.01058,0.0106 0.105833,0.0847 0,0.0212 0.02117,0.0212 h 0.01058 q 0,0.0106 0.01058,0.0106 l 0.190499,-0.13758 0.15875,0.13758 -0.920747,0.80433 h -0.0635 q -0.179916,0 -0.306916,-0.14816 -0.158749,-0.21167 -0.201082,-0.37042 -0.03175,-0.0741 -0.07408,-0.24342 -0.03175,-0.16933 -0.03175,-0.20108 v -0.0741 q -0.01058,0 -0.01058,-0.0212 v -0.0529 q -0.01058,-0.0106 -0.01058,-0.0318 v -0.0635 l -1.396995,1.20649 q -0.380999,-0.21166 -0.624415,-0.58208 -0.232833,-0.381 -0.232833,-0.79375 v -0.0529 q 0,-0.0106 0.01058,-0.0318 v -0.10584 q 0,-0.0106 0.01058,-0.0317 v -0.0212 q 0,-0.0106 0.08467,-0.32809 0.232833,-0.85724 0.899581,-1.39699 l -0.518582,-1.48166 q 0.01058,0.0317 0.03175,0.0317 h 0.0635 q 0,0.0106 0.02117,0.0106 h 0.148167 q 0.03175,0 0.05292,0 0.02117,-0.0106 0.04233,-0.0212 0.01058,0 0.02117,0 0.222249,-0.0318 0.497415,-0.15875 0.243416,-0.11641 0.433915,-0.30691 z m -0.571498,2.14841 q -0.190499,0.254 -0.264582,0.46567 -0.0635,0.21166 -0.0635,0.46566 v 0.14817 q 0,0.0847 0.02117,0.14816 0.08467,0.56092 0.497415,1.13242 l 0.116417,-0.0635 0.740831,-0.65617 V 143.887 Z m -0.412749,-1.44991 0.412749,1.16416 1.02658,0.59267 V 142.363 l -1.312329,-0.52916 z"
         style="fill:#ffffff"
         id="path354" />
      <path
         d="m 80.815464,141.11418 q 0.285749,0.25399 0.486832,0.55033 0.201083,0.29633 0.211666,0.65616 l 1.312329,-1.18533 0.719664,0.71967 0.433916,-0.37042 0.137583,0.13758 q -0.01058,0.0317 -0.02117,0.0423 l -0.02117,0.0212 q -0.285749,0.28575 -0.391582,0.67733 v 2.83633 q 0,0 0.01058,0.0529 0.01058,0.0529 0.02117,0.0741 0.02117,0.0212 0.03175,0.0741 0.01058,0.0106 0.03175,0.0423 0.02117,0.0212 0.03175,0.0318 0.01058,0.0106 0.05292,0.0635 0.04233,0.0529 0.07408,0.0635 l 0.22225,-0.17991 0.169333,0.17991 -0.973664,0.8255 q -0.232833,-0.0741 -0.391582,-0.254 -0.179916,-0.24341 -0.243416,-0.42333 v -3.19616 q -0.02117,0 -0.02117,-0.0106 0,-0.0212 -0.01058,-0.0423 -0.01058,-0.0212 -0.02117,-0.0212 -0.02117,-0.0741 -0.0635,-0.127 -0.0635,-0.127 -0.15875,-0.1905 -0.08467,-0.10583 -0.190499,-0.127 l -0.105833,-0.0212 -0.656165,0.63499 v 2.55058 q 0.03175,0.0952 0.09525,0.21167 0.07408,0.11641 0.137583,0.17991 0.02117,0.0106 0.04233,0.0529 0.02117,0.0317 0.02117,0.0423 0.01058,0 0.03175,0.0212 -0.497416,0.53975 -0.836081,0.6985 l -0.783164,-0.71967 0.306915,-0.32808 v -2.95274 q 0,-0.0529 -0.05292,-0.13758 -0.03175,-0.0529 -0.105833,-0.14817 -0.0635,-0.0317 -0.0635,-0.0635 l -0.232832,0.0847 -0.09525,-0.14817 z"
         style="fill:#ffffff"
         id="path356" />
      <path
         d="m 84.784185,139.55843 3.196157,2.19074 q 0.02117,-0.0106 0.08467,-0.0952 0.03175,-0.0317 0.116417,-0.10583 0.09525,-0.0847 0.232832,-0.14817 l -0.105833,0.34925 v 3.85232 q -0.253999,0.10584 -0.751414,0.34925 -0.232833,0.14817 -0.687915,0.43392 -0.02117,0 -0.03175,0.0106 0,0.0106 -0.03175,0.0317 -0.03175,0.0318 -0.05292,0.0423 l -0.804331,-0.49742 -1.142996,-0.37042 q 0.306916,-0.26458 0.306916,-0.67733 v -2.9104 l 0.941913,-0.39159 -1.291162,-1.05833 z m 1.661578,2.31774 -0.328082,0.20109 v 2.9739 l 1.164163,0.47625 v -2.95274 z"
         style="fill:#ffffff"
         id="path358" />
      <path
         d="m 92.584065,140.43684 h 0.105833 q 0.15875,0.0635 0.201083,0.14817 0.08467,0.16933 0.09525,0.254 0,0.0106 0.01058,0.0317 v 0.16933 q -0.01058,0.0318 -0.01058,0.0741 l -0.03175,0.127 v 0.0317 q -0.01058,0.0106 -0.01058,0.0212 v 0.0212 q -0.01058,0.0106 -0.01058,0.0212 l -1.142996,1.64042 0.984246,0.61383 v 2.03199 q -0.455081,0.1905 -0.656164,0.3175 -0.359832,0.21167 -0.592665,0.40217 -0.01058,0 -0.03175,0.0212 -0.02117,0.0106 -0.04233,0.0212 -0.01058,0 -0.02117,0.0106 -0.01058,0.0106 -0.03175,0.0212 -0.01058,0.0106 -0.02117,0.0106 -0.116416,-0.0635 -0.359832,-0.16933 -0.169333,-0.0635 -0.380999,-0.11642 -0.02117,0 -0.08467,-0.0212 -0.02117,0 -0.05292,-0.0106 -0.03175,0 -0.04233,0 -0.0635,0 -0.09525,-0.0106 h -0.190499 q -0.03175,0.0106 -0.09525,0.0106 -0.137583,0.0212 -0.486832,0.127 -0.08467,0.0317 -0.264582,0.14817 l -0.148166,-0.10583 1.259412,-1.8415 -0.96308,-0.59266 v -1.80975 q 0.507998,-0.16933 1.100663,-0.76199 l 0.0635,-0.0635 q 0.01058,-0.0106 0.02117,-0.0212 0.01058,-0.0212 0.01058,-0.0212 0,0 0.03175,-0.0317 l 1.09008,0.39158 q 0.04233,0.0423 0.0635,0.0423 h 0.03175 q 0.01058,0.0106 0.03175,0.0106 0.09525,0.0318 0.105833,0.0423 0.02117,0 0.07408,0 0.09525,0 0.127,-0.0106 0.09525,-0.0318 0.253999,-0.0847 0.0635,-0.0529 0.116416,-0.0741 0.05292,-0.0318 0.09525,-0.20108 v -0.20108 q -0.01058,-0.0212 -0.0635,-0.0423 0,-0.0212 -0.0635,-0.0741 -0.01058,-0.0529 -0.05292,-0.0635 -0.03175,-0.0212 -0.03175,-0.0317 l -0.03175,-0.0317 v -0.0106 q -0.01058,0 -0.01058,-0.0106 v -0.0212 q -0.01058,0 -0.02117,-0.0106 -0.01058,-0.0212 -0.01058,-0.0318 v -0.0423 q 0,-0.0106 0,-0.0318 0.01058,-0.0212 0.0635,-0.0952 0.03175,-0.0423 0.09525,-0.0847 l 0.01058,-0.0106 h 0.01058 z m -1.396996,3.38666 -1.02658,1.49225 q 0.02117,0.0212 0.0635,0.0212 0.01058,0 0.03175,-0.0106 h 0.03175 q 0.148166,-0.0212 0.190499,-0.0212 0.05292,0 0.09525,-0.0106 h 0.15875 q 0.01058,0.0106 0.07408,0.0106 h 0.08467 q 0.03175,0.0106 0.09525,0.0212 0.0635,0 0.222249,0.0317 0.07408,0.0212 0.222249,0.0741 0.22225,0.0847 0.433916,0.21167 V 144.268 Z m -0.77258,-0.51858 0.592664,0.34925 0.941914,-1.35466 q -0.04233,0.0423 -0.09525,0.0423 h -0.05292 q -0.03175,0.0106 -0.05292,0.0106 h -0.0635 q -0.01058,0.0106 -0.05292,0.0106 h -0.09525 q 0.03175,0 -0.560915,-0.0741 -0.190499,-0.0529 -0.560914,-0.1905 z"
         style="fill:#ffffff"
         id="path360" />
    </g>
  </g>
</svg>
