<?xml version="1.0" encoding="UTF-8" standalone="no"?>
<!-- Created with Inkscape (http://www.inkscape.org/) -->

<svg
   width="10.710289mm"
   height="7.5247259mm"
   viewBox="0 0 10.710289 7.5247259"
   version="1.1"
   id="svg5"
   sodipodi:docname="logo-mobile-ink.svg"
   inkscape:version="1.2.2 (b0a8486, 2022-12-01)"
   xmlns:inkscape="http://www.inkscape.org/namespaces/inkscape"
   xmlns:sodipodi="http://sodipodi.sourceforge.net/DTD/sodipodi-0.dtd"
   xmlns="http://www.w3.org/2000/svg"
   xmlns:svg="http://www.w3.org/2000/svg">
  <sodipodi:namedview
     id="namedview7"
     pagecolor="#ffffff"
     bordercolor="#666666"
     borderopacity="1.0"
     inkscape:showpageshadow="2"
     inkscape:pageopacity="0.0"
     inkscape:pagecheckerboard="0"
     inkscape:deskcolor="#d1d1d1"
     inkscape:document-units="mm"
     showgrid="false"
     inkscape:lockguides="true"
     inkscape:zoom="0.78985682"
     inkscape:cx="225.99032"
     inkscape:cy="12.660522"
     inkscape:window-width="1440"
     inkscape:window-height="900"
     inkscape:window-x="0"
     inkscape:window-y="180"
     inkscape:window-maximized="0"
     inkscape:current-layer="layer1" />
  <defs
     id="defs2" />
  <g
     inkscape:label="Layer 1"
     inkscape:groupmode="layer"
     id="layer1"
     transform="translate(-33.497631,-139.08218)">
    <g
       aria-label="S."
       id="text142"
       style="font-size:10.5833px;line-height:1.25;font-family:'Cloister Black';-inkscape-font-specification:'Cloister Black, ';stroke-width:0.264583">
      <path
         d="m 36.513871,139.08218 2.095494,0.78317 0.243416,-0.45509 0.222249,0.10584 -1.02658,1.88382 h 0.211666 q 0.243416,0.0212 0.719664,0.0952 0.783164,0.14817 1.492246,0.67734 0.719664,0.52916 0.740831,1.38641 0.01058,0.59266 -0.402166,1.15358 -0.370415,0.49741 -0.836081,0.88899 l -1.513411,0.91017 h -0.105833 l -1.31233,-0.53975 -1.471078,0.53975 q -0.0635,0.0212 -0.211666,0.0423 l -0.232833,0.0317 q -0.05292,0 -0.08467,0.0106 h -0.08467 q -0.0635,0 -0.07408,0.0106 h -0.07408 q -0.370415,0 -0.804331,-0.17992 -0.370415,-0.15875 -0.486831,-0.61383 -0.01058,-0.0318 -0.02117,-0.0635 v -0.17992 q 0,-0.70908 0.941914,-1.05833 0.211666,-0.0741 0.433915,-0.0952 l 0.264583,-0.0212 q 0.03175,0.0212 0.169332,0.0212 h 0.09525 q 0.0635,0.0212 0.232833,0.0212 0.04233,0.0106 0.126999,0.0106 l 0.253999,0.0317 0.169333,-0.32808 q -0.01058,0.0318 -0.0635,0.0318 h -0.116416 q -0.01058,0.0106 -0.03175,0.0106 h -0.243416 q -0.05292,0 -0.08467,0 -0.02117,-0.0106 -0.05292,-0.0212 -0.03175,0 -0.04233,0 -1.471078,-0.15875 -1.788577,-1.29116 v -0.0212 q -0.01058,0 -0.01058,-0.0106 v -0.0529 q -0.01058,0 -0.01058,-0.0106 v -0.0317 q 0,-0.42333 0.243416,-0.67733 0.285749,-0.30692 0.624415,-0.43392 0.0635,-0.41275 0.275165,-0.8255 0.211666,-0.42333 0.476249,-0.66674 z m -2.116659,6.3394 q -0.349249,0.11641 -0.444499,0.381 -0.02117,0.0212 -0.02117,0.0635 v 0.0635 q 0,0.0106 0.01058,0.0635 0,0.0106 0,0.0318 0.01058,0.0106 0.02117,0.0212 0,0.0106 0,0.0212 0.02117,0.0317 0.0635,0.0952 0.05292,0.0529 0.09525,0.0847 0.04233,0.0317 0.222249,0.10583 0.07408,0.0106 0.232833,0.0423 0.0635,0 0.169332,0.0212 0.05292,0 0.08467,0.0106 h 0.201083 q 0.03175,-0.0106 0.116416,-0.0106 0.582081,-0.0847 0.93133,-0.23283 0.179916,-0.0741 0.613832,-0.30692 l -1.492246,-0.41275 q -0.03175,0.0106 -0.08467,0.0106 -0.02117,0 -0.05292,-0.0106 -0.03175,0 -0.04233,0 -0.0635,0 -0.09525,-0.0106 h -0.105833 q -0.01058,0 -0.0635,-0.0106 h -0.169333 z m 3.757071,-2.86808 q -0.08467,0.0529 -0.275166,0.0529 h -0.09525 q -0.158749,0.0317 -0.275165,0.0317 -0.04233,0.0106 -0.09525,0.0106 l -0.306916,0.47625 1.555745,-0.0635 q 0.04233,0.0318 0.137583,0.0318 0,0 0.148166,0.0317 0.328083,0.0741 0.624415,0.35983 0.306916,0.27517 0.306916,0.62442 v 0.0212 q -0.01058,0.0106 -0.01058,0.0318 v 0.0847 q -0.01058,0.0106 -0.01058,0.0318 v 0.0529 q 0,0.0106 -0.01058,0.0212 -0.01058,0.0106 -0.02117,0.0318 -0.01058,0.0212 -0.01058,0.0423 -0.04233,0.0741 -0.169333,0.23283 -0.01058,0.0212 -0.04233,0.0635 -0.02117,0.0317 -0.03175,0.0423 -0.01058,0.0106 -0.105833,0.10584 l -0.984247,0.508 0.836081,0.34924 q 0.412749,-0.24341 0.730248,-0.68791 0.317499,-0.4445 0.317499,-0.91016 v -0.0847 q -0.01058,-0.0635 -0.03175,-0.17992 0,-0.0317 -0.02117,-0.0847 -0.03175,-0.10584 -0.0635,-0.16934 -0.01058,-0.0317 -0.04233,-0.0847 -0.03175,-0.0635 -0.04233,-0.0953 -0.550332,-0.85725 -1.904994,-0.85725 z m 0.433915,1.51342 -2.074327,0.127 -0.190499,0.40216 1.703911,0.60325 q 0.04233,0.0317 0.127,0.0106 0.05292,-0.0106 0.127,-0.0529 0.07408,-0.0423 0.158749,-0.11642 0.02117,-0.0212 0.0635,-0.0635 0.05292,-0.0423 0.08467,-0.0741 0.169333,-0.20109 0.211666,-0.32809 0,-0.0212 0.02117,-0.0847 0,-0.0106 0.01058,-0.0529 v -0.13758 q -0.01058,-0.0106 -0.01058,-0.0423 v -0.0212 q -0.01058,0 -0.02117,-0.0106 0,-0.0212 -0.01058,-0.0318 0,-0.0106 -0.08467,-0.0529 -0.01058,-0.0106 -0.04233,-0.0212 -0.03175,-0.0106 -0.04233,-0.0106 0,-0.0106 -0.01058,-0.0212 h -0.02117 z m -3.884071,-2.16958 q -0.02117,0.0317 -0.08467,0.0741 0,0.0106 -0.0635,0.0741 0,0 -0.02117,0.0317 -0.02117,0.0212 -0.03175,0.0318 -0.05292,0.15875 -0.05292,0.16933 0,0 -0.01058,0.0212 v 0.0847 q 0,0.0106 0.01058,0.0212 0.05292,0.23283 0.211666,0.381 0.116416,0.10583 0.412749,0.26458 0.04233,0.0212 0.116416,0.0529 0.02117,0 0.03175,0 0.02117,0.0106 0.03175,0.0212 0.01058,0 0.05292,0 h 0.07408 q 0.01058,0.0106 0.07408,0.0212 0.07408,0 0.158749,0 0.380999,0.0423 0.465665,0.0423 h 0.275166 q 0.04233,0 0.148166,-0.0212 h 0.02117 q 0.05292,0 0.08467,-0.0106 h 0.07408 q 0.04233,0 0.07408,-0.0106 h 0.0635 l 0.243416,-0.51858 q -0.04233,0.0423 -0.09525,0.0423 h -0.04233 q -0.01058,0.0106 -0.04233,0.0106 -0.15875,0.0318 -0.169333,0.0318 -0.105833,0.0212 -0.169333,0.0212 -0.105833,0.0212 -0.148166,0.0212 h -0.211666 q -0.05292,0 -0.08467,-0.0106 -1.047747,-0.0423 -1.396996,-0.82549 z m 1.502829,-1.76741 q -0.349249,0.0741 -0.571498,0.29633 -0.211666,0.21167 -0.211666,0.508 0,0.0635 0,0.0952 0.01058,0.0318 0.03175,0.0953 0,0.0106 0.02117,0.0741 0.02117,0.0106 0.03175,0.0635 0.201083,0.35983 0.550332,0.35983 l 0.0635,-0.0529 1.576912,-0.0847 0.370416,-0.635 q 0.02117,0 -0.105833,-0.0423 0,-0.0106 -0.02117,-0.0212 -0.02117,-0.0212 -0.04233,-0.0212 -0.01058,0 -0.04233,-0.0317 -0.116417,-0.0635 -0.243416,-0.13759 l -0.254,-0.127 q -0.190499,-0.0952 -0.518581,-0.21166 -0.169333,-0.0635 -0.296333,-0.0847 -0.126999,-0.0212 -0.296332,-0.0212 z"
         style="fill:#ffffff"
         id="path401" />
      <path
         d="m 43.414172,146.38466 -0.783164,-0.78317 0.783164,-0.79374 0.793748,0.79374 z"
         style="fill:#ffffff"
         id="path403" />
    </g>
  </g>
</svg>
